<?xml version="1.0" encoding="UTF-8" standalone="no"?>
<!-- Created with Inkscape (http://www.inkscape.org/) -->

<svg
   width="512"
   height="512"
   viewBox="0 0 512 512"
   version="1.1"
   id="svg1"
   xmlns="http://www.w3.org/2000/svg"
   xmlns:svg="http://www.w3.org/2000/svg">
  <defs
     id="defs1" />
  <g
     id="layer1">
    <rect
       style="fill:#262626;fill-opacity:1"
       id="rect1"
       width="512"
       height="512"
       x="0.00020645559"
       y="0" />
    <path
       d="m 153.85618,286.74819 q 0,5.0247 -1.27492,9.07446 -1.27493,3.97477 -3.3748,7.04959 -2.09988,2.99983 -4.87472,5.1747 -2.77483,2.09987 -5.84965,3.4498 -2.99983,1.34992 -6.14964,2.02488 -3.07482,0.59996 -5.84966,0.59996 H 73.685881 V 294.62272 H 126.3328 q 3.97476,0 5.99965,-2.02488 2.02488,-2.02488 2.02488,-5.84965 -0.37498,-7.79955 -7.87454,-7.79955 H 96.259559 q -6.449623,0 -10.949359,-2.24987 -4.499736,-2.24986 -7.34957,-5.62467 -2.774837,-3.3748 -4.049762,-7.27457 -1.19993,-3.89977 -1.19993,-7.27457 0,-6.52462 2.324864,-10.94936 2.324864,-4.49974 5.849657,-7.27458 3.524794,-2.77483 7.649552,-3.97476 4.124758,-1.27493 7.724548,-1.27493 h 47.922191 v 19.49886 h -47.7722 q -1.499912,0 -2.39986,0.37498 -0.824951,0.29998 -1.274925,0.89994 -0.374978,0.52497 -0.449974,1.19993 -0.075,0.59997 -0.075,1.19993 0.075,1.19993 0.449973,1.87489 0.374978,0.67496 0.899948,0.97495 0.599965,0.29998 1.274925,0.37497 0.749956,0 1.424917,0 h 30.223231 q 7.49956,0 12.74925,2.69985 5.24969,2.69984 8.47451,6.8246 3.22481,4.04976 4.64972,8.84948 1.49991,4.79972 1.49991,8.92448 z m 97.3443,0.52496 q 0,4.04977 -1.42492,8.77449 -1.42491,4.64973 -4.64972,8.69949 -3.14982,3.97477 -8.32452,6.67461 -5.0997,2.69984 -12.44927,2.69984 h -35.17294 q -4.04976,0 -8.77448,-1.42491 -4.64973,-1.42492 -8.69949,-4.57474 -3.97477,-3.22481 -6.67461,-8.32451 -2.69984,-5.1747 -2.69984,-12.52427 0,-4.04976 1.42491,-8.77448 1.42492,-4.72472 4.57473,-8.69949 3.22482,-4.04976 8.32452,-6.74961 5.17469,-2.69984 12.52426,-2.69984 h 35.17294 v 18.59891 h -35.17294 q -3.97476,0 -6.14964,2.47486 -2.17487,2.39986 -2.17487,5.99965 0,3.82477 2.47486,5.99964 2.54985,2.09988 5.99964,2.09988 h 35.02295 q 3.97477,0 6.14964,-2.39986 2.17488,-2.39986 2.17488,-5.99965 v -27.2234 q 0,-3.82478 -2.39986,-6.07465 -2.32487,-2.24986 -5.92466,-2.24986 h -42.82249 v -18.52392 h 42.82249 q 4.04977,0 8.69949,1.42492 4.72473,1.42491 8.69949,4.64972 4.04977,3.14982 6.74961,8.32452 2.69984,5.0997 2.69984,12.44927 z m 88.41983,-34.72296 h -44.09742 v -19.49886 h 44.09742 z m 0,-35.17294 h -43.94743 q -3.97476,0 -5.99964,2.02488 -2.02489,1.94989 -2.02489,5.77466 v 88.94479 H 268.1495 v -88.94479 q 0,-5.0247 1.27492,-8.99947 1.27493,-3.97477 3.3748,-6.97459 2.17488,-3.07482 4.94971,-5.1747 2.77484,-2.17487 5.77467,-3.52479 3.07482,-1.34992 6.14964,-1.94989 3.07482,-0.67496 5.84965,-0.67496 h 44.09742 z m 99.66916,42.52251 q 0,4.04976 -1.42492,8.77448 -1.42492,4.64973 -4.64973,8.69949 -3.14981,3.97477 -8.32451,6.67461 -5.0997,2.69985 -12.44927,2.69985 H 377.2681 v -18.52392 h 35.17294 q 3.97477,0 6.14964,-2.39986 2.17487,-2.47485 2.17487,-6.07464 0,-3.82478 -2.47485,-5.99965 -2.39986,-2.17487 -5.84966,-2.17487 H 377.2681 q -3.97477,0 -6.14964,2.47485 -2.17487,2.39986 -2.17487,5.99965 v 27.2234 q 0,3.89978 2.39986,6.07465 2.47485,2.17487 6.07464,2.17487 h 35.02295 v 18.59891 H 377.2681 q -4.04976,0 -8.77449,-1.42491 -4.64972,-1.42492 -8.69949,-4.57474 -3.97476,-3.22481 -6.6746,-8.32451 -2.69985,-5.1747 -2.69985,-12.52427 v -27.37339 q 0,-4.04976 1.42492,-8.69949 1.42492,-4.72473 4.57473,-8.69949 3.22481,-4.04977 8.32451,-6.74961 5.1747,-2.69984 12.52427,-2.69984 h 35.17294 q 4.04976,0 8.69949,1.42492 4.72472,1.42491 8.69949,4.64972 4.04976,3.14982 6.74961,8.32452 2.69984,5.0997 2.69984,12.44927 z"
       id="text1"
       style="font-size:153.591px;font-family:Audiowide;-inkscape-font-specification:'Audiowide, Normal';fill:#00ffcc;stroke-width:0.799952"
       aria-label="safe" />
  </g>
</svg>
